<?xml version="1.0" encoding="UTF-8" standalone="no"?>
<!DOCTYPE svg PUBLIC "-//W3C//DTD SVG 1.1//EN"
 "http://www.w3.org/Graphics/SVG/1.1/DTD/svg11.dtd">
<!-- Generated by graphviz version 12.2.0 (0)
 -->
<!-- Title: G Pages: 1 -->
<svg width="224pt" height="409pt"
 viewBox="0.00 0.00 224.00 408.80" xmlns="http://www.w3.org/2000/svg" xmlns:xlink="http://www.w3.org/1999/xlink">
<g id="graph0" class="graph" transform="scale(1 1) rotate(0) translate(4 404.8)">
<title>G</title>
<polygon fill="white" stroke="none" points="-4,4 -4,-404.8 220,-404.8 220,4 -4,4"/>
<g id="clust1" class="cluster">
<title>cluster_0</title>
<polygon fill="lightgrey" stroke="lightgrey" points="8,-64 8,-356.8 98,-356.8 98,-64 8,-64"/>
<text text-anchor="middle" x="53" y="-340.2" font-family="Noto Serif" font-size="14.00">process #1</text>
</g>
<g id="clust2" class="cluster">
<title>cluster_1</title>
<polygon fill="none" stroke="blue" points="133,-64 133,-356.8 208,-356.8 208,-64 133,-64"/>
<text text-anchor="middle" x="170.5" y="-340.2" font-family="Noto Serif" font-size="14.00">process #2</text>
</g>
<!-- a0 -->
<g id="node1" class="node">
<title>a0</title>
<polygon fill="white" stroke="white" points="90,-324 36,-324 36,-288 90,-288 90,-324"/>
<text text-anchor="middle" x="63" y="-302.4" font-family="Noto Serif" font-size="12.00">a0</text>
</g>
<!-- a1 -->
<g id="node2" class="node">
<title>a1</title>
<polygon fill="white" stroke="white" points="90,-252 36,-252 36,-216 90,-216 90,-252"/>
<text text-anchor="middle" x="63" y="-230.4" font-family="Noto Serif" font-size="12.00">a1</text>
</g>
<!-- a0&#45;&gt;a1 -->
<g id="edge1" class="edge">
<title>a0&#45;&gt;a1</title>
<path fill="none" stroke="black" d="M63,-287.7C63,-280.41 63,-271.73 63,-263.54"/>
<polygon fill="black" stroke="black" points="66.5,-263.62 63,-253.62 59.5,-263.62 66.5,-263.62"/>
</g>
<!-- a2 -->
<g id="node3" class="node">
<title>a2</title>
<polygon fill="white" stroke="white" points="90,-180 36,-180 36,-144 90,-144 90,-180"/>
<text text-anchor="middle" x="63" y="-158.4" font-family="Noto Serif" font-size="12.00">a2</text>
</g>
<!-- a1&#45;&gt;a2 -->
<g id="edge2" class="edge">
<title>a1&#45;&gt;a2</title>
<path fill="none" stroke="black" d="M63,-215.7C63,-208.41 63,-199.73 63,-191.54"/>
<polygon fill="black" stroke="black" points="66.5,-191.62 63,-181.62 59.5,-191.62 66.5,-191.62"/>
</g>
<!-- b3 -->
<g id="node8" class="node">
<title>b3</title>
<polygon fill="lightgrey" stroke="black" points="195,-108 141,-108 141,-72 195,-72 195,-108"/>
<text text-anchor="middle" x="168" y="-86.4" font-family="Noto Serif" font-size="12.00">b3</text>
</g>
<!-- a1&#45;&gt;b3 -->
<g id="edge9" class="edge">
<title>a1&#45;&gt;b3</title>
<path fill="none" stroke="black" d="M75.88,-215.59C94.08,-190.97 127.48,-145.8 148.67,-117.14"/>
<polygon fill="black" stroke="black" points="151.32,-119.45 154.45,-109.33 145.69,-115.29 151.32,-119.45"/>
</g>
<!-- a3 -->
<g id="node4" class="node">
<title>a3</title>
<polygon fill="white" stroke="white" points="90,-108 36,-108 36,-72 90,-72 90,-108"/>
<text text-anchor="middle" x="63" y="-86.4" font-family="Noto Serif" font-size="12.00">a3</text>
</g>
<!-- a2&#45;&gt;a3 -->
<g id="edge3" class="edge">
<title>a2&#45;&gt;a3</title>
<path fill="none" stroke="black" d="M63,-143.7C63,-136.41 63,-127.73 63,-119.54"/>
<polygon fill="black" stroke="black" points="66.5,-119.62 63,-109.62 59.5,-119.62 66.5,-119.62"/>
</g>
<!-- a3&#45;&gt;a0 -->
<g id="edge11" class="edge">
<title>a3&#45;&gt;a0</title>
<path fill="none" stroke="black" d="M47.39,-108.23C39.63,-117.97 31.05,-130.82 27,-144 12.89,-189.88 12.89,-206.12 27,-252 29.88,-261.37 35.05,-270.58 40.58,-278.61"/>
<polygon fill="black" stroke="black" points="37.71,-280.62 46.49,-286.56 43.33,-276.44 37.71,-280.62"/>
</g>
<!-- end -->
<g id="node10" class="node">
<title>end</title>
<polygon fill="none" stroke="black" points="133,-36 97,-36 97,0 133,0 133,-36"/>
<polyline fill="none" stroke="black" points="109,-36 97,-24"/>
<polyline fill="none" stroke="black" points="97,-12 109,0"/>
<polyline fill="none" stroke="black" points="121,0 133,-12"/>
<polyline fill="none" stroke="black" points="133,-24 121,-36"/>
<text text-anchor="middle" x="115" y="-14.4" font-family="Noto Serif" font-size="12.00">end</text>
</g>
<!-- a3&#45;&gt;end -->
<g id="edge12" class="edge">
<title>a3&#45;&gt;end</title>
<path fill="none" stroke="black" d="M75.85,-71.7C81.77,-63.73 88.93,-54.1 95.49,-45.26"/>
<polygon fill="black" stroke="black" points="98.24,-47.43 101.39,-37.32 92.62,-43.26 98.24,-47.43"/>
</g>
<!-- b0 -->
<g id="node5" class="node">
<title>b0</title>
<polygon fill="lightgrey" stroke="black" points="195,-324 141,-324 141,-288 195,-288 195,-324"/>
<text text-anchor="middle" x="168" y="-302.4" font-family="Noto Serif" font-size="12.00">b0</text>
</g>
<!-- b1 -->
<g id="node6" class="node">
<title>b1</title>
<polygon fill="lightgrey" stroke="black" points="197,-252 143,-252 143,-216 197,-216 197,-252"/>
<text text-anchor="middle" x="170" y="-230.4" font-family="Noto Serif" font-size="12.00">b1</text>
</g>
<!-- b0&#45;&gt;b1 -->
<g id="edge4" class="edge">
<title>b0&#45;&gt;b1</title>
<path fill="none" stroke="black" d="M168.49,-287.7C168.7,-280.41 168.95,-271.73 169.18,-263.54"/>
<polygon fill="black" stroke="black" points="172.68,-263.71 169.47,-253.62 165.68,-263.51 172.68,-263.71"/>
</g>
<!-- b2 -->
<g id="node7" class="node">
<title>b2</title>
<polygon fill="lightgrey" stroke="black" points="200,-180 146,-180 146,-144 200,-144 200,-180"/>
<text text-anchor="middle" x="173" y="-158.4" font-family="Noto Serif" font-size="12.00">b2</text>
</g>
<!-- b1&#45;&gt;b2 -->
<g id="edge5" class="edge">
<title>b1&#45;&gt;b2</title>
<path fill="none" stroke="black" d="M170.74,-215.7C171.05,-208.41 171.43,-199.73 171.78,-191.54"/>
<polygon fill="black" stroke="black" points="175.27,-191.76 172.2,-181.62 168.28,-191.46 175.27,-191.76"/>
</g>
<!-- b2&#45;&gt;a3 -->
<g id="edge10" class="edge">
<title>b2&#45;&gt;a3</title>
<path fill="none" stroke="black" d="M145.53,-143.52C131.64,-134.68 114.6,-123.84 99.62,-114.3"/>
<polygon fill="black" stroke="black" points="101.72,-111.49 91.4,-109.07 97.96,-117.39 101.72,-111.49"/>
</g>
<!-- b2&#45;&gt;b3 -->
<g id="edge6" class="edge">
<title>b2&#45;&gt;b3</title>
<path fill="none" stroke="black" d="M171.76,-143.7C171.24,-136.41 170.62,-127.73 170.04,-119.54"/>
<polygon fill="black" stroke="black" points="173.53,-119.34 169.33,-109.61 166.55,-119.84 173.53,-119.34"/>
</g>
<!-- b3&#45;&gt;end -->
<g id="edge13" class="edge">
<title>b3&#45;&gt;end</title>
<path fill="none" stroke="black" d="M154.9,-71.7C148.87,-63.73 141.58,-54.1 134.89,-45.26"/>
<polygon fill="black" stroke="black" points="137.69,-43.17 128.86,-37.31 132.11,-47.4 137.69,-43.17"/>
</g>
<!-- start -->
<g id="node9" class="node">
<title>start</title>
<polygon fill="none" stroke="black" points="115,-400.8 81.89,-382.8 115,-364.8 148.11,-382.8 115,-400.8"/>
<polyline fill="none" stroke="black" points="92.43,-388.53 92.43,-377.07"/>
<polyline fill="none" stroke="black" points="104.46,-370.53 125.54,-370.53"/>
<polyline fill="none" stroke="black" points="137.57,-377.07 137.57,-388.53"/>
<polyline fill="none" stroke="black" points="125.54,-395.07 104.46,-395.07"/>
<text text-anchor="middle" x="115" y="-379.2" font-family="Noto Serif" font-size="12.00">start</text>
</g>
<!-- start&#45;&gt;a0 -->
<g id="edge7" class="edge">
<title>start&#45;&gt;a0</title>
<path fill="none" stroke="black" d="M106.18,-369.11C99.41,-359.38 89.83,-345.6 81.42,-333.49"/>
<polygon fill="black" stroke="black" points="84.44,-331.7 75.86,-325.49 78.69,-335.7 84.44,-331.7"/>
</g>
<!-- start&#45;&gt;b0 -->
<g id="edge8" class="edge">
<title>start&#45;&gt;b0</title>
<path fill="none" stroke="black" d="M123.75,-369.45C130.62,-359.76 140.43,-345.91 149.07,-333.72"/>
<polygon fill="black" stroke="black" points="151.87,-335.83 154.79,-325.64 146.15,-331.78 151.87,-335.83"/>
</g>
</g>
</svg>
